<svg width="100" height="100" viewBox="0 0 100 100" fill="none" xmlns="http://www.w3.org/2000/svg">
<g id="1. Masinerija_Logo 2">
<g id="Group">
<g id="Group_2">
<path id="Vector" d="M69.4389 60.6601V43.1023H62.1782H38.2178H30.8911V60.6601H28.1188V65.9406H30.429V62.9703H33.6633V65.9406H35.9736V60.6601H33.2013V45.4125H38.2178V60.7261H42.9043V63.6964H38.2178V66.0066H62.1122V63.6964H57.4917V60.7261H62.1782V45.4125H67.1947V60.7261H64.4224V66.0066H66.7326V63.0363H69.967V66.0066H72.2772V60.7261H69.4389V60.6601ZM55.2475 63.6303H45.1485V60.6601H55.1815V63.6303H55.2475ZM59.8679 58.3498H40.528V45.4125H59.8679V58.3498Z" fill="#4F6664"/>
<path id="Vector_2" d="M69.439 23.4983H51.3532V21.1221C52.6073 20.66 53.5314 19.4059 53.5314 18.0198C53.5314 16.1716 52.0132 14.7194 50.2311 14.7194C48.3829 14.7194 46.9307 16.2376 46.9307 18.0198C46.9307 19.4719 47.8548 20.66 49.1089 21.1221V23.4983H30.8911V40.792H69.439V23.4983ZM50.165 17.0297C50.7591 17.0297 51.2211 17.4917 51.2211 18.0858C51.2211 18.6798 50.7591 19.1419 50.165 19.1419C49.571 19.1419 49.1089 18.6798 49.1089 18.0858C49.1749 17.4917 49.637 17.0297 50.165 17.0297ZM67.1948 38.4818H33.2013V32.4752L35.7096 34.7194L39.34 31.4191L42.9703 34.7194L46.6007 31.4191L50.2311 34.7194L53.8614 31.4191L57.4918 34.7194L61.1221 31.4191L64.7525 34.7194L67.2608 32.4752V38.4818H67.1948ZM67.1948 30.627L64.6865 32.8712L61.0561 29.5709L57.4258 32.8712L53.7954 29.5709L50.165 32.8712L46.5347 29.5709L42.9043 32.8712L39.274 29.5709L35.6436 32.8712L33.1353 30.627V25.8085H67.1287V30.627H67.1948Z" fill="#4F6664"/>
</g>
<g id="Group_3">
<path id="Vector_3" d="M93.2014 54.6534V41.4521H87.7228H87.5248H71.9473V43.1683H86.0067V52.9373H71.9473V54.6534H73.2674V56.8976H71.9473V58.6138H87.7228V56.8976H84.2905V54.6534H87.7888V43.1683H91.5512V54.6534H89.505V58.6138H91.2212V56.3696H93.5974V58.6138H95.3136V54.6534H93.2014ZM82.5083 56.8976H74.9836V54.6534H82.5083V56.8976Z" fill="#4F6664"/>
<path id="Vector_4" d="M91.4852 28.5148V32.6732C91.4192 32.8052 91.3532 32.9372 91.2872 33.0692C90.9571 33.7953 90.6931 34.2573 90.2971 34.2573C89.901 34.2573 89.637 33.7953 89.307 33.0692C88.9109 32.2771 88.4489 31.3531 87.3928 31.3531C86.3367 31.3531 85.8746 32.3432 85.4786 33.0692C85.1486 33.7953 84.8845 34.2573 84.4885 34.2573C84.0925 34.2573 83.8284 33.7953 83.4984 33.0692C83.1024 32.2771 82.6403 31.3531 81.5842 31.3531C80.5281 31.3531 80.066 32.3432 79.67 33.0692C79.34 33.7953 79.0759 34.2573 78.6799 34.2573C78.2839 34.2573 78.0198 33.7953 77.6898 33.0692C77.2938 32.2771 76.8317 31.3531 75.7756 31.3531C74.7195 31.3531 74.2575 32.3432 73.8614 33.0692C73.5314 33.7953 73.2674 34.2573 72.8713 34.2573C72.4753 34.2573 72.2113 33.7953 71.8812 33.0692V33.0032V34.8514C72.1453 35.1154 72.4753 35.2474 72.8713 35.2474C73.9274 35.2474 74.3895 34.2573 74.7855 33.5313C75.1156 32.8052 75.3796 32.3432 75.7756 32.3432C76.1717 32.3432 76.4357 32.8052 76.7657 33.5313C77.1618 34.3234 77.6238 35.2474 78.6799 35.2474C79.736 35.2474 80.1981 34.2573 80.5941 33.5313C80.9241 32.8052 81.1882 32.3432 81.5842 32.3432C81.9802 32.3432 82.2443 32.8052 82.5743 33.5313C82.9703 34.3234 83.4324 35.2474 84.4885 35.2474C85.5446 35.2474 86.0066 34.2573 86.4027 33.5313C86.7327 32.8052 86.9967 32.3432 87.3928 32.3432C87.7888 32.3432 88.0528 32.8052 88.3829 33.5313C88.7789 34.3234 89.241 35.2474 90.2971 35.2474C90.8251 35.2474 91.1552 35.0494 91.4852 34.7194V38.0857H71.9472V39.8019H93.2014V32.3432V31.287V26.7986H79.604V25.0164C80.5281 24.6864 81.2542 23.7623 81.2542 22.7062C81.2542 21.3201 80.1321 20.1979 78.7459 20.1979C77.3598 20.1979 76.2377 21.3201 76.2377 22.7062C76.2377 23.7623 76.8977 24.6864 77.8878 25.0164V26.7986H71.9472V28.5148H91.4852ZM78.7459 21.9141C79.142 21.9141 79.538 22.2441 79.538 22.7062C79.538 23.1022 79.208 23.4983 78.7459 23.4983C78.3499 23.4983 77.9538 23.1682 77.9538 22.7062C77.9538 22.2441 78.2839 21.9141 78.7459 21.9141Z" fill="#4F6664"/>
</g>
<g id="Group_4">
<path id="Vector_5" d="M24.2904 32.2111H26.0066V33.9273H24.2904V32.2111ZM20.9241 32.2111H22.6403V33.9273H20.9241V32.2111ZM17.4918 32.2111H19.2079V33.9273H17.4918V32.2111ZM14.0594 32.2111H15.7756V33.9273H14.0594V32.2111ZM10.6271 32.2111H12.3432V33.9273H10.6271V32.2111Z" fill="#4F6664"/>
<path id="Vector_6" d="M14.4555 52.8712V43.1022H28.4489V41.3861H12.7393H7.19473V54.6534H5.08252V58.6138H6.79869V56.3696H9.24094V58.6138H10.9571V54.6534H8.9109V43.1022H12.7393V54.6534H16.2376V56.8976H12.7393V58.6138H28.5149V56.8976H27.3267V54.6534H28.5149V52.9372H14.4555V52.8712ZM25.5446 56.8976H17.9538V54.6534H25.5446V56.8976Z" fill="#4F6664"/>
<path id="Vector_7" d="M8.91087 37.8877V28.2507H28.4488V26.5346H22.5742V24.7524C23.4983 24.4223 24.2244 23.4983 24.2244 22.3761C24.2244 20.99 23.1023 19.8679 21.7162 19.8679C20.33 19.8679 19.2079 20.99 19.2079 22.3761C19.2079 23.4322 19.868 24.3563 20.8581 24.7524V26.5346H7.1947V39.6039H28.4488V37.8877H8.91087ZM21.7822 21.6501C22.1782 21.6501 22.5742 21.9801 22.5742 22.4421C22.5742 22.8382 22.2442 23.2342 21.7822 23.2342C21.3861 23.2342 20.9901 22.9042 20.9901 22.4421C20.9901 21.9801 21.3201 21.6501 21.7822 21.6501Z" fill="#4F6664"/>
<path id="Vector_8" d="M12.3432 32.2111H10.6271V33.9273H12.3432V32.2111Z" fill="#4F6664"/>
<path id="Vector_9" d="M15.7756 32.2111H14.0594V33.9273H15.7756V32.2111Z" fill="#4F6664"/>
<path id="Vector_10" d="M19.2079 32.2111H17.4917V33.9273H19.2079V32.2111Z" fill="#4F6664"/>
<path id="Vector_11" d="M22.6402 32.2111H20.9241V33.9273H22.6402V32.2111Z" fill="#4F6664"/>
<path id="Vector_12" d="M26.0066 32.2111H24.2904V33.9273H26.0066V32.2111Z" fill="#4F6664"/>
<path id="Vector_13" d="M28.4488 32.2111H27.7228V33.9273H28.4488V32.2111Z" fill="#4F6664"/>
</g>
<g id="Group_5">
<path id="Vector_14" d="M16.5016 84.1584V76.6996C16.5016 76.3696 16.6996 76.1716 16.9636 76.1056C17.2937 76.0396 17.5577 76.1716 17.6897 76.4356C17.8877 76.8317 18.0197 77.1617 18.2178 77.5577C18.4818 78.2178 18.8778 79.0099 19.2079 79.6039C19.5379 78.9439 19.8679 78.2178 20.198 77.5577C20.396 77.1617 20.528 76.8317 20.726 76.4356C20.858 76.1716 21.122 76.0396 21.4521 76.1056C21.7821 76.1716 21.9141 76.4356 21.9141 76.6996V84.1584C21.9141 84.4884 21.6501 84.7524 21.3201 84.7524C20.99 84.7524 20.726 84.4884 20.726 84.1584V79.4719C20.528 79.934 20.264 80.396 20.1319 80.726C20.0659 80.9241 19.9339 81.1221 19.8679 81.3201C19.7359 81.5181 19.5379 81.6501 19.3399 81.6501C19.0758 81.6501 18.8778 81.5181 18.7458 81.3201C18.6798 81.1221 18.5478 80.9241 18.4818 80.726C18.2838 80.396 18.0857 79.934 17.8877 79.4719V84.1584C17.8877 84.4884 17.6237 84.7524 17.2937 84.7524C16.7656 84.8184 16.5016 84.5544 16.5016 84.1584Z" fill="#4F6664"/>
<path id="Vector_15" d="M29.5709 84.7524C29.2409 84.8184 28.9109 84.6204 28.7789 84.3564C28.7129 84.2244 28.7129 84.0923 28.6469 83.9603C28.5809 83.6963 28.4488 83.3663 28.3828 82.9702H26.2046C26.0726 83.3663 26.0066 83.6963 25.9406 83.9603C25.8746 84.0923 25.8746 84.2244 25.8086 84.3564C25.7426 84.6864 25.4125 84.8844 25.0165 84.7524C24.6865 84.6864 24.4884 84.3564 24.6205 83.9603L26.6667 76.5016C26.7327 76.2376 26.9967 76.0395 27.2607 76.0395C27.5247 76.0395 27.7888 76.2376 27.8548 76.5016L29.901 83.9603C30.099 84.3564 29.901 84.6864 29.5709 84.7524ZM27.3927 79.0098C27.1287 79.8679 26.8647 80.858 26.6667 81.7161H28.1848C27.8548 80.858 27.5908 79.8679 27.3927 79.0098Z" fill="#4F6664"/>
<path id="Vector_16" d="M36.8317 82.7062C36.7656 83.3663 36.5016 83.8944 35.9736 84.2904C35.4455 84.6864 34.7854 84.8184 34.1914 84.6864C33.5313 84.5544 33.0033 84.1584 32.6732 83.6303C32.4752 83.3663 32.6072 82.9703 32.9373 82.7722C33.2673 82.5742 33.5973 82.7062 33.7954 83.0363C33.9274 83.3003 34.1914 83.4323 34.4554 83.4983C34.7194 83.5643 35.0495 83.4983 35.2475 83.3003C35.5115 83.1023 35.6435 82.9043 35.6435 82.5742C35.6435 82.2442 35.5775 81.9802 35.3795 81.7821L33.3333 79.6699C32.9373 79.2079 32.6732 78.6138 32.7392 78.0198C32.8053 77.4257 33.0693 76.8316 33.5973 76.4356C34.1254 76.0396 34.7194 75.9076 35.3135 76.0396C35.9076 76.1716 36.4356 76.5016 36.7656 77.0957C36.9637 77.3597 36.8317 77.7557 36.5676 77.9538C36.3036 78.1518 35.9076 78.0198 35.7095 77.6897C35.5775 77.4257 35.3795 77.2937 35.1155 77.2277C34.8515 77.1617 34.5874 77.2277 34.3894 77.4257C34.1914 77.5577 34.0594 77.8217 33.9934 78.0858C33.9934 78.3498 34.0594 78.6138 34.2574 78.8118L36.3036 80.9241C36.6336 81.4521 36.8977 82.1122 36.8317 82.7062ZM34.2574 73.9274C34.3894 74.0594 34.5874 74.1914 34.7855 74.3234C34.9835 74.1914 35.1155 74.0594 35.3135 73.9274C35.3795 73.8613 35.5115 73.7953 35.5775 73.7293C35.8416 73.5313 36.1716 73.5973 36.3696 73.7953C36.5676 74.0594 36.5016 74.3894 36.3036 74.5874L35.1155 75.5115C34.9835 75.5775 34.9175 75.6435 34.7855 75.6435C34.6534 75.6435 34.5214 75.5775 34.4554 75.5115L33.2673 74.5874C33.0033 74.3894 33.0033 74.0594 33.2013 73.7953C33.3993 73.5313 33.7293 73.5313 33.9934 73.7293C34.0594 73.7293 34.1914 73.7953 34.2574 73.9274Z" fill="#4F6664"/>
<path id="Vector_17" d="M39.934 84.1584V76.6996C39.934 76.3696 40.198 76.1056 40.528 76.1056C40.8581 76.1056 41.1221 76.3696 41.1221 76.6996V84.1584C41.1221 84.4884 40.8581 84.7525 40.528 84.7525C40.198 84.7525 39.934 84.5544 39.934 84.1584Z" fill="#4F6664"/>
<path id="Vector_18" d="M48.2509 84.4224C47.9868 83.8944 47.7228 83.3003 47.4588 82.7063C46.9967 81.7162 46.3367 80.462 45.8086 79.3399V84.0924C45.8086 84.4224 45.5446 84.6865 45.2145 84.6865C44.8845 84.6865 44.6205 84.4224 44.6205 84.0924V76.6336C44.6205 76.3036 44.8185 76.1056 45.0825 76.0396C45.3466 75.9736 45.6106 76.1056 45.8086 76.3696C46.0726 76.8977 46.3367 77.4917 46.6007 78.0858C47.0627 79.0759 47.6568 80.33 48.2509 81.4521V76.6996C48.2509 76.3696 48.5149 76.1056 48.8449 76.1056C49.1749 76.1056 49.439 76.3696 49.439 76.6996V84.1584C49.439 84.4224 49.2409 84.6865 48.9769 84.7525C48.6469 84.8845 48.3829 84.6865 48.2509 84.4224Z" fill="#4F6664"/>
<path id="Vector_19" d="M53.4653 76.1056H56.0395C56.3696 76.1056 56.6336 76.3696 56.6336 76.6996C56.6336 77.0297 56.3696 77.2937 56.0395 77.2937H54.0593V79.6039H55.7755C56.1055 79.6039 56.3696 79.868 56.3696 80.198C56.3696 80.528 56.1055 80.7921 55.7755 80.7921H54.1253V83.3663H56.1055C56.4356 83.3663 56.6996 83.6303 56.6996 83.9604C56.6996 84.2904 56.4356 84.5544 56.1055 84.5544H53.4653C53.1352 84.5544 52.8712 84.2904 52.8712 83.9604V76.5676C52.8712 76.3696 53.1352 76.1056 53.4653 76.1056Z" fill="#4F6664"/>
<path id="Vector_20" d="M62.8383 80.9241L63.9604 83.9604C64.0924 84.2904 63.8944 84.6204 63.6304 84.7524C63.3003 84.8845 62.9703 84.6864 62.8383 84.4224L61.6502 81.1881H60.9241V84.1584C60.9241 84.4884 60.6601 84.7524 60.33 84.7524C60 84.7524 59.736 84.4884 59.736 84.1584V76.6996C59.736 76.3696 60 76.1056 60.33 76.1056H61.8482C63.0363 76.1056 64.0264 77.0957 64.0264 78.2838V79.0099C64.0264 79.868 63.5644 80.594 62.8383 80.9241ZM61.8482 79.934C62.3762 79.934 62.7723 79.5379 62.7723 79.0099V78.2838C62.7723 77.7558 62.3762 77.3597 61.8482 77.3597H60.9241V79.934H61.8482Z" fill="#4F6664"/>
<path id="Vector_21" d="M67.1287 84.1584V76.6996C67.1287 76.3696 67.3927 76.1056 67.7227 76.1056C68.0528 76.1056 68.3168 76.3696 68.3168 76.6996V84.1584C68.3168 84.4884 68.0528 84.7524 67.7227 84.7524C67.3927 84.8184 67.1287 84.5544 67.1287 84.1584Z" fill="#4F6664"/>
<path id="Vector_22" d="M73.6633 84.4884C73.3333 84.6864 72.9373 84.7524 72.5412 84.7524C72.1452 84.7524 71.8152 84.6864 71.4851 84.4884C71.1551 84.2904 71.0891 83.9603 71.2211 83.6303C71.3531 83.3003 71.7491 83.2343 72.0792 83.3663C72.2112 83.4323 72.4092 83.4983 72.5412 83.4983C72.6732 83.4983 72.8713 83.4323 73.0033 83.3663C73.3333 83.2343 73.4653 82.9042 73.4653 82.5742V76.6336C73.4653 76.3036 73.7293 76.0395 74.0594 76.0395C74.3894 76.0395 74.6534 76.3036 74.6534 76.6336V82.5742C74.7855 83.4323 74.3234 84.0924 73.6633 84.4884Z" fill="#4F6664"/>
<path id="Vector_23" d="M82.4422 84.7524C82.1121 84.8184 81.7821 84.6204 81.6501 84.3564C81.5841 84.2244 81.5841 84.0923 81.5181 83.9603C81.4521 83.6963 81.32 83.3663 81.254 82.9702H79.0758C78.9438 83.3663 78.8778 83.6963 78.8118 83.9603C78.7458 84.0923 78.7458 84.2244 78.6798 84.3564C78.6138 84.6864 78.2837 84.8844 77.8877 84.7524C77.5577 84.6864 77.3597 84.3564 77.4917 83.9603L79.5379 76.5016C79.6039 76.2376 79.8019 76.0395 80.1319 76.0395C80.462 76.0395 80.66 76.2376 80.726 76.5016L82.7722 83.9603C82.9702 84.3564 82.7722 84.6864 82.4422 84.7524ZM80.1979 79.0098C79.9339 79.8679 79.6699 80.858 79.4719 81.7161H80.99C80.726 80.858 80.462 79.8679 80.1979 79.0098Z" fill="#4F6664"/>
</g>
</g>
</g>
</svg>
